<svg xmlns="http://www.w3.org/2000/svg" viewBox="0 0 48 48"><rect x="3" y="3" width="42" height="42" rx="11.3" fill="#E28599" /><path d="M9 8c5-3 13-4 25-2c-7 3-14 5-24 5z" fill="#FFFFFF" opacity=".12"/><g transform="translate(24,24) scale(0.9)" stroke-linecap="round" stroke-linejoin="round"><circle cx="0" cy="-7" r="5" fill="none" stroke="#FFFFFF" stroke-width="2.55" stroke-linecap="round" stroke-linejoin="round" /><path d="M-9,14 C-9,4 -4,0 0,0 C4,0 9,4 9,14 Z" fill="none" stroke="#FFFFFF" stroke-width="2.55" stroke-linecap="round" stroke-linejoin="round" /><path d="M4,-9 C7,-11 10,-9 9,-6 C8,-4 4,-3 4,-3 C4,-3 1,-6 2,-8 C2.5,-9 3.5,-9.5 4,-9 Z" fill="none" stroke="#FFFFFF" stroke-width="2.55" stroke-linecap="round" stroke-linejoin="round" /></g></svg>