<svg xmlns="http://www.w3.org/2000/svg" viewBox="0 0 48 48"><rect x="3" y="3" width="42" height="42" rx="11.3" fill="#6EC1A2" /><path d="M9 8c5-3 13-4 25-2c-7 3-14 5-24 5z" fill="#FFFFFF" opacity=".12"/><g transform="translate(24,24) scale(0.9)" stroke-linecap="round" stroke-linejoin="round"><path d="M-9,-8 C-9,-14 -3,-13 0,-11 C3,-13 9,-14 9,-8 C9,-1 6,1 5,8 C4,13 2,13 1,8 C0,4 0,4 -1,8 C-2,13 -4,13 -5,8 C-6,1 -9,-1 -9,-8 Z" fill="none" stroke="#FFFFFF" stroke-width="2.55" stroke-linecap="round" stroke-linejoin="round" /></g></svg>