<svg xmlns="http://www.w3.org/2000/svg" viewBox="0 0 48 48"><defs><linearGradient id="bg" x1="8" y1="5" x2="40" y2="44" gradientUnits="userSpaceOnUse"><stop offset="0" stop-color="#F0B083"/><stop offset="1" stop-color="#E49868"/></linearGradient></defs><rect x="3" y="3" width="42" height="42" rx="13" fill="url(#bg)"/><path d="M9 8c5-3 13-4 25-2c-7 3-14 5-24 5z" fill="#FFFFFF" opacity=".12"/><g transform="translate(24 24)"><path d="M-15.5.5c0-6.4 5.8-11.8 13.1-12.1C1.5-15.7 9.9-14.6 14-8.9c4.9 6.7 2.2 15.5-5.1 19.2C1.6 14.1-9.2 11.7-13.8 5c-1.1-1.6-1.7-3.1-1.7-4.5z" fill="#FFFFFF"/><circle cx="1" cy="-1" r="5.9" fill="#FFD35A"/><path d="M-9-8c3.1-2.4 7.4-3.2 11.8-2.4" fill="none" stroke="#FFFFFF" stroke-width="2.2" stroke-linecap="round" opacity=".28"/></g></svg>
