<svg xmlns="http://www.w3.org/2000/svg" viewBox="0 0 48 48"><rect x="3" y="3" width="42" height="42" rx="11.3" fill="#E8B06A"/><path d="M9 8c5-3 13-4 25-2c-7 3-14 5-24 5z" fill="#FFFFFF" opacity=".12"/><g transform="translate(24,24)"><g fill="#FFFFFF"><path d="M-8.5,-5 L-4.5,-9 L-3,-4 Z M8.5,-5 L4.5,-9 L3,-4 Z"/><path fill-rule="evenodd" d="M0,1.5 m-8.5,0 a8.5,8.5 0 1,0 17,0 a8.5,8.5 0 1,0 -17,0 M-3.5,-0.5 m-1.1,0 a1.1,1.1 0 1,0 2.2,0 a1.1,1.1 0 1,0 -2.2,0 M3.5,-0.5 m-1.1,0 a1.1,1.1 0 1,0 2.2,0 a1.1,1.1 0 1,0 -2.2,0"/></g></g></svg>